<?xml version="1.0" encoding="UTF-8" standalone="no"?>
<!DOCTYPE svg PUBLIC "-//W3C//DTD SVG 1.1//EN" "http://www.w3.org/Graphics/SVG/1.1/DTD/svg11.dtd">
<svg width="100%" height="100%" viewBox="0 0 2481 3508" version="1.1" xmlns="http://www.w3.org/2000/svg" xmlns:xlink="http://www.w3.org/1999/xlink" xml:space="preserve" xmlns:serif="http://www.serif.com/" style="fill-rule:evenodd;clip-rule:evenodd;stroke-linejoin:round;stroke-miterlimit:2;">
        <path d="M2374.02,874.016L2374.02,826.772L2350.39,826.772L2350.39,838.583L2338.54,838.583L2338.54,826.772L2326.81,826.772L2326.81,838.583L2314.96,838.583L2314.96,826.772L2279.53,826.772L2279.53,838.583L2267.68,838.583L2267.68,826.772L1966.74,826.772L1966.74,909.449L2338.58,909.449L2338.58,897.638L2326.77,897.638L2326.77,885.872L2314.96,885.872L2314.96,874.016L2326.77,874.016L2326.77,862.25L2314.96,862.25L2314.96,874.016L2303.15,874.016L2303.15,862.205L2291.3,862.205L2291.3,850.439L2279.49,850.439L2279.49,838.583L2291.3,838.583L2291.3,826.772L2303.15,826.772L2303.15,838.628L2291.34,838.628L2291.34,850.349L2303.11,850.349L2303.11,838.628L2314.96,838.628L2314.96,850.394L2326.77,850.394L2326.77,862.205L2338.58,862.205L2338.58,874.061L2326.77,874.061L2326.77,885.782L2338.58,885.782L2338.58,874.061L2350.39,874.061L2350.39,885.827L2362.2,885.827L2362.2,897.638L2374.02,897.638L2374.02,909.449L2374.02,885.872L2362.24,885.872L2362.24,874.016L2374.02,874.016ZM2362.2,909.449L2362.2,897.683L2350.39,897.683L2350.39,909.449L2362.2,909.449ZM2338.58,885.917L2338.58,897.593L2350.39,897.593L2350.39,885.917L2338.58,885.917ZM2338.62,850.349L2338.62,838.583L2326.77,838.583L2326.77,850.439L2338.58,850.439L2338.58,862.205L2350.43,862.205L2350.43,874.016L2362.24,874.016L2362.24,862.205L2374.02,862.205L2374.02,850.349L2362.16,850.349L2362.16,862.16L2350.43,862.16L2350.43,850.349L2338.62,850.349ZM2303.15,850.484L2303.15,862.16L2314.92,862.16L2314.92,850.484L2303.15,850.484Z" style="fill:rgb(191,242,155);"/>

</svg>
