<svg xmlns="http://www.w3.org/2000/svg" width="600" height="399.359" viewBox="0 0 600 399.359"><path d="M243.466 43.827C243.466 19.66 223.806 0 199.64 0s-43.827 19.66-43.827 43.827v179.922h87.653V43.827zm-4.63 175.292h-78.393V43.827c0-21.613 17.584-39.197 39.197-39.197s39.196 17.584 39.196 39.197v175.292zM351.498 43.827C351.498 19.66 331.837 0 307.671 0c-24.168 0-43.828 19.66-43.828 43.827v179.922h87.655V43.827zm-4.63 175.292h-78.395V43.827c0-21.613 17.584-39.197 39.198-39.197s39.197 17.584 39.197 39.197v175.292zM415.718 0c-24.166 0-43.827 19.66-43.827 43.827v179.922h87.653V43.827C459.544 19.66 439.884 0 415.718 0zm39.196 219.119h-78.393V43.827c0-21.613 17.584-39.197 39.197-39.197 21.612 0 39.196 17.584 39.196 39.197v175.292zM5.607 338.699h4.186l6.725 7.712h5.174v-.297l-6.987-7.88c4.384-.887 5.835-4.086 5.835-7.25 0-3.989-2.868-7.614-8.307-7.646-3.659 0-7.318-.034-10.976-.034v23.107h4.35v-7.713zm0-11.306h6.626c2.736 0 3.955 1.844 3.955 3.691 0 1.845-1.186 3.692-3.955 3.692H5.607v-7.383zm35.07 14.732H27.723v-5.207h12.492v-4.055H27.723v-5.306h12.954v-4.219H23.405v23.073h17.272v-4.286zm8.732-11.273l12.13 15.59v-.031h2.703v-23.107H59.89v14.34l-11.305-14.306h-3.527v23.073h4.35v-15.56zm23.5 0l12.13 15.59v-.031h2.702v-23.107H83.39v14.34l-11.306-14.306h-3.526v23.073h4.35v-15.56zm36.025 11.273H95.98v-5.207h12.491v-4.055H95.98v-5.306h12.954v-4.219H91.66v23.073h17.273v-4.286zm12.852.989c-2.801 0-5.471-1.121-6.493-3.658l-3.625 1.88c1.713 4.218 5.34 5.668 10.053 5.668 5.142 0 9.69-2.208 9.69-7.351 0-5.505-4.482-6.756-9.295-7.35-2.768-.33-5.141-.89-5.141-2.901 0-1.715 1.549-3.064 4.78-3.064 2.504 0 4.68 1.251 5.47 2.57l3.462-1.78c-1.748-3.56-5.472-4.582-9.065-4.582-4.252.034-8.933 1.977-8.933 6.726 0 5.173 4.35 6.426 9.065 6.986 3.065.33 5.34 1.219 5.34 3.395 0 2.507-2.571 3.46-5.308 3.46zM13.773 379.98c-3.65-.436-6.778-1.174-6.778-3.824 0-2.26 2.042-4.041 6.3-4.041 3.302 0 6.17 1.65 7.213 3.388l4.562-2.345c-2.303-4.694-7.213-6.041-11.95-6.041-5.604.043-11.774 2.607-11.774 8.865 0 6.822 5.736 8.472 11.95 9.21 4.04.436 7.038 1.61 7.038 4.477 0 3.301-3.39 4.561-6.995 4.561-3.694 0-7.214-1.477-8.56-4.824L0 391.884c2.26 5.562 7.039 7.475 13.252 7.475 6.777 0 12.774-2.913 12.774-9.69 0-7.257-5.909-8.908-12.253-9.688zm25.64-11.82L25.77 398.576h6.212l2.607-5.735h15.903l2.564 5.735h6.257l-13.644-30.415h-6.257zm-2.52 19.335l5.648-12.947 5.649 12.947H36.893zm23.032 11.08h5.691v-30.415h-5.691v30.415zm29.503-11.557l-14.903-18.858h-4.649v30.415h5.735v-20.509l15.99 20.553v-.044h3.563v-30.458h-5.736v18.901zm7.651-13.643h9.646v25.2h5.736v-25.2h9.645v-5.215H97.079v5.215zm26.334 13.47h16.033v-4.868h-16.033v4.868zm32.46 4.995l-9.168-23.68h-6.43l12.643 30.545h5.953l12.644-30.545h-6.43l-9.213 23.68zm17.644 6.735h5.692v-30.415h-5.692v30.415zm29.504-11.557l-14.904-18.858h-4.648v30.415h5.735v-20.509l15.99 20.553v-.044h3.562v-30.458h-5.735v18.901zm24.684 6.865c-7.517 0-10.428-5.257-10.471-10.298-.043-5.083 3.128-10.557 10.471-10.557 2.65 0 5.345.91 7.344 2.867l3.823-3.694c-3.128-3.084-7.039-4.648-11.167-4.648-10.993 0-16.163 8.082-16.12 16.032.044 7.908 4.824 15.684 16.12 15.684 4.388 0 8.43-1.434 11.558-4.518l-3.91-3.954c-2 2-4.997 3.086-7.648 3.086zm13.124 4.692h22.768v-5.648h-17.076v-6.865h16.468v-5.345H246.52v-6.995h17.076v-5.562H240.83v30.415zm46.54-11.557l-14.904-18.858h-4.649v30.415h5.735v-20.509l15.99 20.553v-.044h3.562v-30.458h-5.735v18.901zm7.651-13.643h9.645v25.2h5.736v-25.2h9.646v-5.215H295.02v5.215zm55.896-5.258c-4.78 0-9.559.043-14.34.043v30.415h5.735v-8.95h8.605c14.902 0 14.858-21.508 0-21.508zm0 16.25h-8.605v-10.775h8.605c7.3 0 7.342 10.776 0 10.776zm38.935-6.127c0-5.256-3.78-10.036-10.95-10.08-4.823 0-9.645-.043-14.47-.043v30.458h5.736V388.41h5.518l8.865 10.166h6.822v-.39L382.16 387.8c5.778-1.173 7.691-5.388 7.691-9.56zm-19.684 4.998v-9.733h8.735c3.605 0 5.212 2.434 5.212 4.865 0 2.434-1.564 4.868-5.212 4.868h-8.735zm36.285-15.685c-10.514 0-15.642 8.036-15.642 16.032s4.952 15.684 15.642 15.684 15.51-7.863 15.597-15.728c.087-7.952-5.125-15.988-15.597-15.988zm0 26.46c-7.17 0-9.863-5.344-9.993-10.342-.13-5.125 2.824-10.906 9.993-10.906s10.036 5.737 9.95 10.863c-.088 4.998-2.782 10.386-9.95 10.386zm28.038-2.173l-9.169-23.68h-6.431l12.643 30.545h5.954l12.644-30.545H443.7l-9.21 23.68zm17.643 6.735h5.692v-30.415h-5.692v30.415zm21.075-30.415h-11.947v30.415h11.947c10.646 0 15.338-7.778 15.208-15.468-.13-7.518-4.779-14.947-15.208-14.947zm0 24.897h-6.255v-19.465h6.255c6.605 0 9.386 4.735 9.516 9.472.13 4.952-2.607 9.993-9.516 9.993zm17.34 5.518h22.769v-5.648H496.24v-6.865h16.467v-5.345H496.24v-6.995h17.077v-5.562h-22.77v30.415zm46.538-11.557l-14.904-18.858h-4.648v30.415h5.735v-20.509l15.99 20.553v-.044h3.562v-30.458h-5.735v18.901zm24.684 6.865c-7.518 0-10.429-5.257-10.472-10.298-.044-5.083 3.128-10.557 10.472-10.557 2.65 0 5.345.91 7.343 2.867l3.824-3.694c-3.128-3.084-7.04-4.648-11.167-4.648-10.993 0-16.164 8.082-16.12 16.032.043 7.908 4.824 15.684 16.12 15.684 4.388 0 8.43-1.434 11.557-4.518l-3.91-3.954c-1.998 2-4.996 3.086-7.647 3.086zM600 373.723v-5.562h-22.767v30.415H600v-5.648h-17.075v-6.865h16.468v-5.345h-16.468v-6.995H600z" fill="#c00e15"/></svg>